<?xml version="1.0" encoding="UTF-8"?>
<svg version="1.1" xmlns="http://www.w3.org/2000/svg" width="397" height="431">
<path d="M0 0 C7.90580405 1.17187803 14.75885228 3.66607328 22 7 C23.15113281 7.52851563 24.30226562 8.05703125 25.48828125 8.6015625 C44.76816933 17.83062368 59.98418311 32.76577751 73.05078125 49.5546875 C75.1650941 52.20711203 77.42860207 54.65228679 79.75 57.125 C86.37309751 64.32671445 92.17208796 72.15123266 98 80 C99.02287109 81.36125 99.02287109 81.36125 100.06640625 82.75 C110.62468882 97.2523278 120.53106742 115.37629914 125.4375 132.625 C126.25036866 135.44237723 127.07875885 138.24608187 127.97265625 141.0390625 C129.03086136 144.34645642 130.02561891 147.66699803 131 151 C131.30421875 151.98742187 131.6084375 152.97484375 131.921875 153.9921875 C135.19691775 166.38173602 134.26813126 179.29195349 134 192 C139.99800001 190.91249228 145.65339764 189.60863548 151.375 187.5 C152.53773438 187.0771875 153.70046875 186.654375 154.8984375 186.21875 C157.88047996 185.13108003 157.88047996 185.13108003 160.0390625 183.84375 C164.62326263 181.87126548 168.42974746 183.02872121 172.8984375 184.71484375 C174.72793661 185.44585026 176.55339087 186.18704835 178.375 186.9375 C184.65459787 189.51980623 190.19906882 191.49829196 197 192 C196.97643433 191.11199707 196.97643433 191.11199707 196.95239258 190.20605469 C195.86240126 142.46719438 214.42142794 96.42503163 247.453125 61.72265625 C249.93566595 59.06877428 252.22650441 56.33380745 254.5 53.5 C258.57578574 48.44165877 262.88984883 43.66640502 267.3125 38.9140625 C269.76352872 36.25640635 272.13217521 33.54395502 274.5 30.8125 C283.04819692 21.35652996 292.87492163 14.93337513 304 9 C304.86496094 8.5153125 305.72992188 8.030625 306.62109375 7.53125 C313.87774212 3.62290737 322.67848691 0 331 0 C335.08773355 12.32118268 337.27289189 25.15659606 339 38 C339.08830078 38.65540771 339.17660156 39.31081543 339.26757812 39.98608398 C343.22065981 71.87024732 335.30102689 102.08689669 325 132 C324.69352539 132.919021 324.38705078 133.83804199 324.07128906 134.78491211 C317.1406337 155.47867726 308.8664027 170.6240289 294.6328125 187.09082031 C293.57035796 188.33310418 292.5273417 189.59236953 291.5078125 190.87011719 C287.94290759 195.2784614 284.13956213 198.21915943 279.375 201.25 C263.26970554 211.80445604 263.26970554 211.80445604 254 228 C252.94453389 234.6268097 252.41603269 241.30645297 252 248 C249.44245686 247.44889761 248.02222598 247.01634263 245.875 245.4375 C241.55094472 243.27547236 237.74049695 243.27123704 233 244 C223.6548787 247.19214539 217.46074221 254.9172054 212.8125 263.3125 C208.51126576 272.42168922 205 283.86565374 205 294 C205.79148438 293.02546875 206.58296875 292.0509375 207.3984375 291.046875 C210.78200791 287.66529142 213.41557263 287.31030718 218.0859375 287.21484375 C219.34277344 287.23224609 219.34277344 287.23224609 220.625 287.25 C222.30474261 287.24231825 223.98447155 287.22696777 225.6640625 287.203125 C226.40092285 287.20989258 227.1377832 287.21666016 227.89697266 287.22363281 C230.33690677 286.96417383 231.90941152 286.26632189 234 285 C235.31210005 283.30272775 235.31210005 283.30272775 236.25 281.375 C237.11625 279.704375 237.11625 279.704375 238 278 C236.865625 278.66 235.73125 279.32 234.5625 280 C230.05169687 282.27956658 225.98982015 282.66603726 221 282 C220 281 220 281 219.625 277.25 C219.68115083 273.78736518 220.01261297 272.98127165 222.0625 269.9375 C225 268 225 268 228.8125 268.1875 C229.864375 268.455625 230.91625 268.72375 232 269 C232.66 265.37 233.32 261.74 234 258 C233.01 258 232.02 258 231 258 C232.39750048 254.84164893 234.05198234 252.67727175 236.5 250.25 C237.1084375 249.63640625 237.716875 249.0228125 238.34375 248.390625 C240 247 240 247 242 247 C242.15855469 248.28132812 242.31710938 249.56265625 242.48046875 250.8828125 C243.89004611 261.57383493 245.95592941 270.96911902 250 281 C252.2157518 287.10802376 253.86605221 293.26835135 255.3515625 299.59375 C255.76763376 301.93388797 255.76763376 301.93388797 257 303 C258.39565265 320.31982057 252.60070255 335.63487131 241.6640625 349.125 C240 351 240 351 237.3125 353.4375 C234.50512666 356.54837316 233.53065335 359.53744819 232.1015625 363.4296875 C230.37984752 367.44702245 227.84793651 370.71158265 225 374 C224.56397461 374.52094238 224.12794922 375.04188477 223.67871094 375.57861328 C221.5548471 377.37691684 220.43257157 377.39833621 217.67578125 377.43359375 C216.81992432 377.44471191 215.96406738 377.45583008 215.08227539 377.46728516 C213.71123657 377.4525415 213.71123657 377.4525415 212.3125 377.4375 C211.37075928 377.43282715 210.42901855 377.4281543 209.45874023 377.42333984 C202.14680297 377.27089162 195.72904575 376.0458832 188.734375 374.01171875 C183.86002932 372.69115857 179.00272466 372.1142685 173.98828125 371.58984375 C170.73028126 370.9467614 168.66337711 369.96605656 166 368 C165.3125 365.6875 165.3125 365.6875 166 363 C167.53776124 361.59311206 169.07721169 360.18791838 170.6328125 358.80078125 C172.42221678 356.44388019 172.30372289 354.92716484 172.3125 352 C172.43905493 348.75824675 172.51038691 347.48961309 174.8359375 345.1640625 C177.16887274 343.63719126 179.53526711 342.30150912 182 341 C183.19784185 340.22407006 184.38725049 339.43474129 185.5625 338.625 C186.366875 338.08875 187.17125 337.5525 188 337 C187.95231597 335.12119128 187.95231597 335.12119128 187 333 C184.19199824 330.70254401 182.02046051 329.19911425 178.4375 328.5 C175.17602383 329.16902075 173.48650291 330.84066853 171 333 C167.3315241 334.2228253 164.86340281 334.38634028 161 334 C159.11342074 332.82958423 157.43642136 331.49915302 155.69140625 330.12890625 C152.9992384 328.33205519 151.11920258 328.38972124 148 329 C145.15079947 330.87769142 145.15079947 330.87769142 143 333 C143.31352916 336.08826221 143.51268027 337.57208495 145.890625 339.66015625 C147.05851562 340.35431641 147.05851562 340.35431641 148.25 341.0625 C149.05953125 341.57425781 149.8690625 342.08601563 150.703125 342.61328125 C152.45978383 343.67384908 154.22753614 344.71606275 156 345.75 C158.78199685 348.87974645 158.43590963 351.52751194 158.62109375 355.6015625 C159.18466165 359.1688892 161.38981593 360.65752712 164 363 C164.3125 365.8125 164.3125 365.8125 164 368 C156.77471694 371.75823175 149.55140804 373.37790477 141.5625 374.75 C140.32999512 374.96317871 139.09749023 375.17635742 137.82763672 375.39599609 C130.76936468 376.55132135 123.78225512 377.50549537 116.625 377.625 C115.57614624 377.65932129 115.57614624 377.65932129 114.50610352 377.69433594 C110.23595304 377.62861685 107.45818935 376.54077619 104.3359375 373.60058594 C101.86595626 370.64130286 100.3219651 367.28042852 98.6875 363.8125 C96.07648591 358.55932874 93.5798223 354.11016746 89.4375 349.875 C78.67692555 338.79461827 72.48934695 322.85518654 72.67919922 307.52734375 C73.2310478 301.45952919 75.2256575 296.00359451 77.3125 290.3125 C78.12232151 288.01735992 78.93093563 285.72179343 79.73828125 283.42578125 C80.12669189 282.33007812 80.51510254 281.234375 80.9152832 280.10546875 C83.6647322 272.2339875 85.56712285 264.64007734 86.6875 256.375 C86.88182617 255.01181641 86.88182617 255.01181641 87.08007812 253.62109375 C87.39358556 251.41493033 87.70012935 249.2080508 88 247 C91.12610718 248.49078774 93.30195297 250.03102949 95.75 252.5 C96.36359375 253.1084375 96.9771875 253.716875 97.609375 254.34375 C99 256 99 256 99 258 C98.01 258 97.02 258 96 258 C96.33 259.0725 96.66 260.145 97 261.25 C98 265 98 265 98 269 C99.5778125 268.5978125 99.5778125 268.5978125 101.1875 268.1875 C105 268 105 268 107.9375 270 C110.45700903 273.66474041 110.57617676 275.63751885 110 280 C107.63907851 282.36092149 107.03749516 282.31949234 103.8125 282.375 C98.86541936 282.29495015 96.04425257 280.75353366 92 278 C92.78551657 279.31618998 93.5786237 280.62785228 94.375 281.9375 C94.81585938 282.66839844 95.25671875 283.39929688 95.7109375 284.15234375 C96.8773984 286.13772272 96.8773984 286.13772272 99 287 C100.35811432 286.99011169 101.71611299 286.91992424 103.0703125 286.81640625 C116.43504191 286.0835831 116.43504191 286.0835831 121.03515625 288.77734375 C122.95376408 290.75862843 124.55133731 292.65703651 126 295 C125.16961055 290.63603844 124.30817835 286.28025863 123.40136719 281.93164062 C123.063416 280.30519915 122.73735965 278.67629263 122.4140625 277.046875 C119.99293117 266.54482481 114.17152464 254.84443807 105.0859375 248.70703125 C104.52132812 248.41183594 103.95671875 248.11664063 103.375 247.8125 C100 246 100 246 97 244 C90.11937215 242.96550001 85.6901411 244.2065726 80 248 C79.34 248 78.68 248 78 248 C77.97421875 247.05640625 77.9484375 246.1128125 77.921875 245.140625 C77.31942772 231.50340924 74.89296442 221.58710868 64.9375 211.6875 C60.89008098 207.98454217 56.59170642 204.97860694 52 202 C39.82757353 193.60447891 30.44901863 182.0021912 22 170 C21.09507813 168.78376953 21.09507813 168.78376953 20.171875 167.54296875 C11.56465776 155.23309725 7.28841806 139.85729999 3.28515625 125.51171875 C2.3356956 122.1177226 1.30734378 118.75525087 0.24609375 115.39453125 C-10.57056485 81.0648744 -16.88881328 33.77762656 0 0 Z " fill="#fff" transform="translate(13,10)"/>
<path d="M0 0 C3.00611836 1.44440854 5.86541108 3.14058652 8.75 4.8125 C9.54277344 5.25142578 10.33554688 5.69035156 11.15234375 6.14257812 C12.27576172 6.79323242 12.27576172 6.79323242 13.421875 7.45703125 C14.10862305 7.84866455 14.79537109 8.24029785 15.50292969 8.64379883 C16.24397949 9.31511841 16.24397949 9.31511841 17 10 C17 11.32 17 12.64 17 14 C7.0736452 19.32633672 -4.19064324 21.02641816 -15.19140625 18.171875 C-18.68769198 16.80796732 -21.33329006 15.66670994 -24 13 C-24 12.01 -24 11.02 -24 10 C-20.76114441 8.12583577 -17.5073541 6.27929595 -14.25 4.4375 C-13.32960937 3.90447266 -12.40921875 3.37144531 -11.4609375 2.82226562 C-10.57148438 2.32275391 -9.68203125 1.82324219 -8.765625 1.30859375 C-7.94868164 0.84251709 -7.13173828 0.37644043 -6.29003906 -0.10375977 C-3.59347155 -1.15910085 -2.65541121 -1.05501632 0 0 Z " fill="#fff" transform="translate(181,380)"/>
</svg>
