<?xml version="1.0" standalone="no"?>
<!DOCTYPE svg PUBLIC "-//W3C//DTD SVG 20010904//EN"
 "http://www.w3.org/TR/2001/REC-SVG-20010904/DTD/svg10.dtd">
<svg version="1.0" xmlns="http://www.w3.org/2000/svg"
 width="1262.000000pt" height="1280.000000pt" viewBox="0 0 1262.000000 1280.000000"
 preserveAspectRatio="xMidYMid meet">
<metadata>
Created by potrace 1.15, written by Peter Selinger 2001-2017
</metadata>
<g transform="translate(0.000000,1280.000000) scale(0.100000,-0.100000)"
fill="#1f2937" stroke="none">
<path d="M5258 12378 c-16 -5 -28 -14 -28 -19 0 -5 -10 -9 -21 -9 -43 0 -109
-57 -144 -125 -22 -41 -56 -145 -53 -162 2 -13 -10 -19 -62 -28 -36 -6 -79
-19 -97 -28 -18 -9 -36 -17 -42 -17 -15 0 -115 -49 -223 -109 -61 -34 -100
-62 -104 -75 -7 -25 -53 -76 -68 -76 -5 0 -31 -24 -58 -52 -27 -31 -48 -46
-48 -37 0 8 5 20 11 26 10 10 -13 96 -35 132 -15 23 -81 7 -121 -30 -36 -34
-62 -90 -50 -109 4 -6 0 -19 -8 -28 -21 -23 -33 -189 -17 -234 11 -30 10 -38
-19 -86 -17 -29 -31 -57 -31 -62 0 -19 -67 -108 -120 -157 -30 -28 -51 -55
-47 -59 12 -12 100 37 135 75 17 20 50 72 71 116 22 44 63 112 93 151 122 164
168 220 192 241 14 13 26 27 26 32 0 5 8 12 18 15 10 3 26 20 36 36 40 69 76
80 121 38 11 -11 33 -22 48 -25 16 -3 31 -12 34 -20 3 -8 24 -23 47 -35 39
-20 85 -24 176 -13 14 1 37 3 51 4 16 1 34 13 48 32 19 26 21 35 12 55 -6 13
-23 30 -38 37 -16 6 -36 22 -45 33 -33 41 -105 75 -159 76 -32 1 -45 5 -37 10
33 23 137 71 168 78 19 5 53 14 75 20 51 15 111 20 263 24 137 3 134 4 147
-69 17 -98 32 -117 125 -160 54 -26 124 -24 154 4 12 10 35 25 51 32 44 21 44
51 0 96 -20 21 -40 42 -43 48 -10 14 -49 35 -67 35 -9 0 -27 7 -40 16 -49 32
-154 51 -265 47 -58 -2 -112 -6 -120 -8 -8 -3 25 32 73 77 92 86 127 143 127
202 0 53 -30 67 -92 44z"/>
<path d="M7740 12306 c-130 -35 -168 -38 -191 -15 -27 27 -41 24 -124 -25 -58
-35 -176 -93 -205 -101 -14 -3 -43 -15 -65 -24 -90 -41 -230 -80 -265 -75 -28
4 -40 0 -57 -18 -22 -24 -73 -160 -73 -195 0 -11 -11 -52 -25 -91 -14 -39 -25
-90 -25 -112 0 -23 -6 -53 -14 -68 -8 -16 -18 -60 -22 -100 -3 -40 -11 -75
-15 -78 -5 -3 -9 -14 -9 -25 0 -28 30 -24 70 11 19 16 43 29 52 30 9 0 19 4
23 9 9 16 95 71 109 71 8 0 19 7 26 15 7 8 18 15 25 15 8 0 15 4 17 8 5 11
139 98 164 106 12 4 29 15 39 26 10 11 23 20 28 20 6 0 18 6 26 14 21 18 199
106 214 106 3 0 38 15 79 34 69 32 199 63 217 51 5 -2 14 2 21 9 6 8 25 18 41
21 16 4 38 20 50 36 11 16 28 29 37 29 9 0 26 7 36 15 11 8 30 15 42 15 48 0
148 58 152 87 4 28 -48 63 -94 63 -16 0 -39 7 -50 15 -10 8 -26 15 -34 15 -8
0 -25 9 -38 20 -17 14 -21 25 -16 44 3 13 3 34 -1 45 -8 27 -34 26 -145 -3z"/>
<path d="M7701 11753 c-36 -7 -78 -20 -95 -28 -16 -8 -34 -15 -41 -15 -12 0
-137 -62 -245 -120 -30 -17 -60 -30 -66 -30 -6 0 -17 -6 -23 -14 -6 -7 -39
-28 -74 -45 -73 -38 -169 -92 -188 -106 -8 -6 -27 -17 -44 -25 -32 -16 -185
-117 -224 -148 -24 -19 -24 -21 -8 -43 31 -45 42 -56 72 -72 17 -8 47 -31 68
-49 31 -29 148 -80 192 -84 6 0 17 -4 25 -7 8 -3 64 -11 123 -17 59 -6 116
-14 127 -18 10 -4 58 -3 107 1 172 16 185 15 242 -26 57 -41 69 -44 86 -21 6
9 27 22 46 28 39 14 219 13 240 0 8 -5 22 -7 32 -5 10 1 26 -4 35 -12 10 -8
33 -22 52 -30 43 -17 130 -91 148 -124 15 -27 23 -27 97 0 39 14 97 15 215 2
75 -7 110 -15 110 -25 0 -4 9 -10 19 -13 11 -2 36 -28 56 -56 48 -67 80 -68
151 -4 27 23 52 43 56 43 4 0 7 -22 7 -49 -2 -46 -4 -50 -30 -56 -27 -6 -89
-65 -89 -85 0 -10 28 -40 39 -40 4 0 16 7 27 15 28 21 82 20 80 -2 -1 -13 8
-19 31 -21 40 -4 56 22 47 76 -6 38 -5 39 37 56 54 22 79 43 79 68 0 26 -21
31 -79 19 -48 -10 -52 -9 -76 15 -14 14 -25 26 -25 28 0 4 59 18 100 24 50 7
227 -2 253 -13 22 -9 24 27 2 45 -8 7 -15 18 -15 25 0 8 -12 37 -26 65 -32 64
-25 113 16 118 27 4 50 19 50 33 0 4 -8 15 -17 25 -10 9 -25 27 -33 39 -13 19
-62 78 -115 138 -8 9 -15 20 -15 25 0 4 -9 23 -19 43 -26 47 -17 78 30 112 41
30 45 40 29 81 -6 18 -17 26 -34 26 -13 0 -41 7 -62 16 -65 28 -289 72 -404
79 -49 4 -197 39 -208 50 -8 8 48 55 66 55 13 0 17 26 4 34 -5 3 -46 0 -93 -5
-46 -6 -95 -10 -109 -10 -14 0 -63 -6 -110 -14 -115 -18 -175 -24 -307 -30
-117 -6 -139 1 -110 33 14 15 14 19 -3 40 -16 19 -27 22 -82 21 -34 -1 -92 -8
-127 -16z"/>
<path d="M5804 11632 c-21 -14 -34 -74 -28 -131 4 -31 10 -60 14 -66 4 -5 11
-20 14 -32 7 -22 4 -23 -38 -23 -41 0 -46 -3 -52 -26 -5 -20 0 -32 26 -59 31
-32 31 -33 11 -40 -15 -5 -21 -15 -21 -37 0 -23 -9 -40 -34 -63 -30 -28 -33
-35 -27 -66 5 -25 13 -35 30 -37 13 -2 28 1 34 7 6 6 19 11 28 11 14 0 16 -8
14 -44 -3 -36 -10 -51 -37 -75 -18 -17 -44 -31 -58 -33 -14 -1 -47 -3 -75 -5
-90 -5 -130 -10 -154 -18 -13 -4 -35 -8 -50 -10 -14 -1 -47 -8 -73 -15 l-46
-14 -52 47 c-29 26 -58 47 -65 47 -7 0 -18 7 -25 15 -7 8 -24 21 -39 28 -14 7
-35 18 -46 25 -11 6 -31 13 -45 16 -14 3 -36 15 -50 26 l-25 20 35 -1 c19 0
64 2 100 5 36 4 87 8 114 9 28 2 52 9 54 15 2 7 12 12 22 12 9 0 23 7 30 15 7
8 19 15 26 15 8 0 14 4 14 8 0 5 15 16 33 25 17 9 52 33 77 52 25 19 56 39 68
45 36 15 120 109 148 163 31 62 31 97 0 126 -20 19 -32 22 -67 17 -63 -7 -113
-23 -142 -46 -24 -19 -122 -200 -146 -270 -6 -19 -33 -58 -59 -87 l-47 -52
-115 -5 c-63 -3 -160 -7 -215 -9 -55 -1 -104 -5 -110 -8 -5 -3 -39 -7 -74 -8
-35 -1 -68 -4 -72 -7 -15 -9 -171 -14 -167 -5 2 5 39 39 83 76 146 123 305
294 305 329 0 37 -41 67 -101 72 -30 3 -59 1 -65 -3 -17 -13 -105 -165 -120
-206 -8 -21 -27 -59 -44 -83 -16 -25 -33 -56 -36 -70 -7 -28 -114 -143 -135
-145 -88 -7 -126 -14 -214 -40 -38 -11 -88 -25 -110 -31 -56 -14 -142 -58
-167 -85 -12 -13 -26 -23 -31 -23 -6 0 -29 -16 -53 -35 -23 -19 -47 -35 -54
-35 -6 0 -22 -11 -36 -25 -26 -26 -64 -50 -64 -40 0 3 8 18 18 33 117 170 139
218 157 329 5 35 3 43 -13 52 -41 22 -114 -3 -164 -56 -33 -35 -78 -140 -78
-183 0 -17 -5 -40 -10 -50 -6 -11 -12 -37 -14 -58 -2 -21 -18 -66 -35 -100
-17 -34 -31 -67 -31 -74 0 -7 -18 -31 -40 -52 -22 -22 -40 -44 -40 -49 0 -14
-73 -82 -108 -99 -17 -9 -32 -14 -32 -11 0 3 11 26 24 52 51 97 86 177 86 197
0 12 7 27 15 34 33 27 10 204 -33 253 -8 9 -35 28 -60 42 -70 39 -137 32 -219
-25 -30 -22 -73 -107 -73 -144 0 -44 24 -119 41 -126 8 -4 24 -12 36 -18 31
-16 56 -15 98 5 51 24 64 95 18 101 -21 3 -39 43 -28 62 7 12 45 13 61 2 25
-16 37 -84 29 -161 -4 -42 -8 -88 -9 -103 0 -15 -7 -33 -13 -39 -7 -7 -13 -23
-13 -35 0 -13 -4 -25 -9 -28 -5 -3 -19 -38 -32 -78 -12 -40 -30 -82 -40 -93
-9 -11 -26 -46 -38 -79 -12 -32 -28 -68 -36 -80 -8 -11 -15 -32 -15 -45 0 -14
-11 -41 -25 -62 -29 -41 -102 -103 -108 -91 -3 4 -8 67 -12 140 l-7 133 31 31
c40 41 40 77 2 119 -36 38 -78 43 -119 12 -47 -35 -37 -121 17 -138 25 -7 33
-44 37 -160 7 -180 5 -209 -16 -227 -11 -9 -20 -23 -20 -32 0 -9 -4 -16 -10
-16 -5 0 -27 -19 -49 -41 l-39 -41 -79 67 c-43 38 -79 69 -81 70 -1 1 4 15 13
31 20 40 19 71 -5 91 -11 10 -20 28 -20 40 0 13 -4 31 -9 41 -6 9 -12 29 -15
43 -3 15 -14 37 -25 50 -19 23 -19 23 -55 6 -20 -9 -44 -17 -53 -17 -24 0
-141 -122 -148 -156 -4 -16 -12 -40 -18 -52 -17 -35 20 -136 52 -140 13 -2 28
1 33 6 6 6 23 6 46 0 72 -19 99 -20 129 -4 30 15 30 15 94 -39 35 -30 64 -60
64 -66 0 -7 -15 -17 -33 -23 -46 -16 -132 -111 -169 -187 -18 -35 -49 -117
-69 -182 -24 -77 -45 -124 -59 -135 -11 -9 -54 -75 -95 -147 -41 -71 -78 -134
-82 -140 -5 -5 -8 15 -7 45 1 30 -1 78 -5 105 -4 28 -9 64 -12 80 -15 104 -16
145 -4 161 8 9 10 18 4 22 -5 4 -9 16 -9 27 0 15 -10 22 -37 29 -66 16 -127
-28 -108 -80 10 -25 66 -74 86 -74 8 0 14 -3 15 -7 0 -5 2 -19 4 -33 2 -14 8
-74 14 -135 7 -60 14 -130 18 -154 5 -41 -8 -107 -28 -141 -24 -41 -63 -128
-68 -155 -4 -16 -12 -30 -18 -30 -6 0 -51 38 -98 85 l-87 84 12 39 c6 21 8 52
5 68 -7 29 -36 54 -49 42 -3 -3 -6 6 -6 21 0 15 -11 44 -25 64 -14 20 -25 42
-25 50 0 20 -48 38 -62 24 -7 -7 -21 -12 -33 -12 -20 0 -85 -68 -85 -90 0 -6
-9 -23 -21 -39 -16 -22 -19 -38 -16 -77 3 -27 11 -61 18 -76 11 -25 17 -28 61
-28 27 0 58 5 68 10 16 8 21 5 32 -17 11 -23 21 -29 53 -31 35 -3 50 -13 122
-85 46 -45 83 -86 83 -92 0 -6 -9 -16 -19 -22 -28 -18 -73 -120 -82 -188 -4
-33 -12 -85 -18 -115 -6 -30 -13 -75 -16 -100 -12 -83 -13 -91 -23 -103 -16
-20 -34 -109 -33 -157 1 -31 -7 -63 -25 -99 -14 -30 -24 -65 -21 -78 7 -40
-10 -25 -28 25 -9 26 -27 63 -39 82 -12 19 -40 72 -61 117 -22 46 -43 83 -47
83 -5 0 -8 9 -8 20 0 12 -7 31 -16 45 -12 18 -13 28 -5 44 16 28 14 36 -14 69
l-25 30 -37 -19 c-45 -23 -63 -44 -63 -76 0 -28 57 -68 75 -53 8 7 20 -3 38
-31 15 -22 27 -45 27 -49 0 -5 18 -43 39 -85 22 -42 47 -96 57 -120 9 -25 27
-59 40 -77 13 -17 24 -39 24 -47 0 -8 7 -23 17 -33 14 -16 15 -23 3 -57 -7
-22 -10 -48 -8 -59 3 -10 -1 -30 -8 -43 -7 -13 -13 -36 -14 -51 0 -33 -3 -33
-103 -8 -102 26 -111 31 -144 90 -22 40 -33 50 -54 50 -14 0 -34 7 -45 15 -27
20 -49 18 -89 -8 -42 -27 -53 -54 -54 -129 0 -42 5 -63 19 -80 l20 -23 17 23
c18 22 18 22 31 2 16 -27 31 -25 103 9 l60 29 47 -18 c26 -10 65 -21 87 -24
71 -12 73 -16 36 -95 -29 -63 -33 -82 -34 -164 -1 -81 2 -99 26 -149 15 -31
27 -62 27 -67 0 -6 4 -11 10 -11 5 0 7 -7 4 -15 -4 -9 0 -15 10 -15 9 0 15 -6
13 -12 -1 -7 8 -14 20 -16 17 -2 23 2 23 15 0 11 6 25 12 31 10 10 10 15 1 20
-8 5 -8 17 3 47 8 22 14 54 14 70 1 17 2 46 2 65 1 19 -2 43 -6 53 -7 14 -1
20 30 33 51 20 105 46 124 60 8 5 35 19 60 29 25 10 53 25 63 33 16 14 17 10
17 -65 0 -44 5 -104 10 -134 8 -42 7 -64 -5 -107 -9 -29 -19 -78 -23 -109 l-7
-57 -45 -3 c-55 -4 -106 -27 -121 -54 -9 -17 -6 -28 15 -60 15 -21 31 -39 36
-39 6 0 10 -3 10 -7 0 -5 -11 -8 -25 -8 -14 0 -25 5 -25 11 0 17 -49 77 -73
91 -32 18 -57 16 -58 -4 -1 -12 -4 -9 -8 7 -10 37 -53 39 -80 3 -11 -15 -35
-42 -52 -59 l-32 -32 11 -58 c14 -67 50 -108 90 -101 17 3 26 -2 34 -19 12
-25 32 -31 43 -14 3 6 14 10 23 10 9 0 31 15 50 33 19 17 32 25 29 17 -26 -70
-30 -91 -19 -115 14 -30 32 -32 39 -5 8 32 23 23 23 -13 0 -18 5 -38 12 -45
14 -14 50 -16 63 -3 6 6 34 13 63 17 51 6 52 6 52 -19 0 -14 -5 -29 -10 -32
-6 -4 -24 -32 -40 -63 -17 -31 -41 -75 -53 -97 -23 -41 -45 -98 -67 -175 -18
-61 -39 -102 -49 -95 -8 5 -15 32 -26 105 -3 19 -12 69 -19 110 -8 41 -13 93
-11 115 4 54 -6 135 -16 135 -5 0 -9 -9 -9 -19 0 -11 -4 -23 -10 -26 -11 -7
-11 -102 1 -125 4 -8 10 -53 14 -100 4 -47 11 -92 15 -101 5 -8 11 -44 14 -79
3 -35 10 -78 15 -95 5 -16 16 -66 26 -110 9 -44 22 -94 29 -110 7 -17 17 -46
21 -65 l8 -34 -34 30 c-19 17 -50 45 -69 64 -19 18 -48 39 -65 46 -16 7 -39
21 -50 32 -20 19 -116 71 -165 90 -14 6 -41 17 -62 26 -20 9 -63 19 -96 22
-59 7 -60 6 -76 -24 -9 -17 -13 -39 -9 -49 11 -29 54 -83 67 -83 7 0 23 -11
36 -25 13 -14 46 -32 73 -40 27 -8 55 -19 62 -25 7 -6 48 -17 91 -25 78 -15
109 -24 171 -51 17 -8 38 -14 46 -14 8 0 20 -6 26 -14 7 -8 26 -21 44 -29 37
-18 50 -42 102 -187 21 -58 44 -112 52 -121 7 -8 13 -23 13 -32 0 -9 20 -59
44 -109 23 -51 46 -103 50 -115 l7 -21 -48 18 c-26 10 -71 21 -98 25 -28 3
-59 10 -70 15 -30 12 -164 29 -209 26 -92 -6 -113 -125 -28 -157 15 -6 34 -17
42 -24 9 -8 24 -14 35 -15 11 0 49 -2 85 -4 36 -2 76 0 90 4 39 12 132 31 165
34 17 2 38 7 48 11 10 4 19 6 20 4 2 -2 28 -56 60 -120 31 -64 64 -122 72
-129 8 -7 15 -21 15 -31 0 -10 4 -20 9 -24 5 -3 17 -31 26 -62 9 -31 25 -68
36 -82 23 -28 19 -37 -9 -22 -34 18 -62 12 -94 -19 -16 -16 -40 -30 -53 -30
-12 0 -39 -7 -58 -15 -20 -8 -51 -15 -69 -15 -43 0 -96 -33 -104 -65 -8 -31
19 -75 45 -75 10 0 35 -7 55 -15 27 -12 46 -13 78 -6 23 5 46 7 50 5 5 -3 16
0 24 7 20 16 185 -1 184 -20 -1 -12 -73 -52 -79 -43 -15 21 -58 42 -87 42 -25
0 -34 -6 -44 -29 -20 -49 -9 -82 38 -118 28 -21 55 -33 74 -33 30 0 30 -1 15
-18 -10 -10 -17 -32 -17 -49 0 -17 -8 -41 -18 -54 -26 -34 -32 -55 -19 -68 18
-18 87 -13 122 9 26 16 38 18 59 10 14 -5 26 -13 26 -18 0 -4 -13 -39 -30 -77
-36 -86 -37 -103 -4 -115 22 -9 32 -5 72 26 37 28 48 32 50 20 2 -9 -10 -28
-27 -42 -49 -41 -40 -83 20 -97 23 -6 30 -1 53 33 14 22 31 40 38 40 6 0 20 7
30 17 17 15 18 14 18 -40 0 -45 4 -60 22 -77 27 -25 43 -25 79 1 24 17 29 27
29 63 0 65 19 75 65 31 21 -19 43 -35 49 -35 6 0 17 -9 24 -20 8 -14 23 -20
46 -20 51 0 64 -8 76 -46 9 -26 27 -45 73 -74 34 -21 68 -48 75 -60 7 -11 24
-25 37 -30 46 -17 26 -27 -55 -25 -51 2 -89 -2 -106 -11 -14 -8 -31 -11 -36
-8 -6 4 -41 7 -78 8 -62 1 -70 4 -90 29 -42 53 -117 23 -133 -53 -5 -21 0 -28
29 -43 46 -22 89 -22 111 2 23 25 164 45 213 31 18 -5 38 -7 43 -3 6 4 48 8
93 9 63 3 85 0 94 -11 7 -8 21 -15 31 -15 10 0 22 -6 26 -14 4 -7 23 -21 41
-30 18 -9 38 -25 45 -36 6 -11 16 -20 22 -20 5 0 30 -14 55 -30 25 -16 52 -30
61 -30 8 0 42 -25 74 -55 38 -35 68 -55 83 -55 13 0 37 -11 54 -25 16 -13 47
-29 68 -35 22 -6 40 -15 40 -21 0 -5 17 -17 38 -26 20 -8 44 -21 52 -28 8 -7
33 -19 55 -26 22 -7 53 -24 68 -36 16 -13 41 -23 55 -24 l27 0 -25 -11 c-68
-27 -352 -54 -426 -40 -18 3 -31 16 -40 38 -23 56 -72 70 -118 33 -23 -18 -26
-27 -26 -83 0 -78 15 -94 80 -90 34 2 51 9 68 30 24 27 25 27 180 31 87 2 168
5 182 6 60 6 127 21 151 33 32 16 81 5 113 -25 20 -19 53 -30 161 -53 28 -6
60 -19 73 -29 13 -10 30 -15 37 -12 19 7 75 -50 75 -76 0 -31 60 -121 81 -121
26 0 35 -20 11 -27 -11 -2 -25 -16 -32 -31 -6 -14 -20 -32 -30 -39 -38 -27
-34 -125 6 -140 8 -3 42 2 75 12 47 15 67 27 95 61 61 76 58 74 106 57 24 -9
73 -18 110 -21 66 -5 68 -4 97 27 27 29 28 34 18 64 -14 38 -24 47 -53 47 -12
0 -32 8 -45 19 l-23 18 32 44 c37 50 39 72 11 118 -18 30 -23 33 -56 28 -42
-7 -74 -34 -109 -94 -15 -25 -32 -43 -43 -43 -27 0 -64 36 -57 56 7 19 -19 54
-40 54 -8 0 -39 12 -71 26 -32 14 -74 26 -93 27 l-35 2 -2 75 c-1 41 -8 95
-17 120 -8 25 -17 56 -20 70 -14 64 -28 114 -37 131 -12 24 -6 24 50 -2 25
-11 65 -29 89 -40 23 -10 53 -19 67 -19 13 0 70 -16 127 -36 57 -20 123 -42
147 -49 32 -8 45 -18 47 -33 3 -19 -1 -20 -52 -20 -30 0 -59 -3 -64 -8 -10
-10 -19 -109 -13 -135 7 -25 49 -37 114 -31 82 6 133 -24 163 -97 29 -72 43
-80 89 -50 41 27 52 55 37 94 -14 37 -14 37 33 30 39 -6 45 -4 75 28 39 40 35
59 -20 99 -26 18 -46 23 -95 23 -35 0 -63 2 -63 5 0 3 7 13 15 24 13 18 17 18
82 2 37 -8 79 -17 92 -18 19 -2 28 -15 46 -66 12 -34 34 -80 49 -102 31 -47
32 -57 7 -65 -21 -6 -91 -79 -91 -94 0 -5 7 -17 16 -26 15 -15 15 -18 1 -32
-14 -14 -19 -12 -55 26 -29 30 -47 41 -69 41 -71 0 -87 -122 -21 -168 21 -15
24 -32 6 -32 -14 0 -68 -71 -68 -89 0 -7 -7 -22 -16 -36 -18 -27 -7 -57 26
-75 28 -15 44 -12 71 10 40 34 97 69 103 62 3 -3 6 -18 6 -34 0 -16 7 -45 16
-66 9 -20 17 -64 19 -98 1 -33 10 -75 20 -94 9 -18 21 -56 25 -84 10 -69 65
-215 89 -240 16 -15 35 -20 83 -21 35 -1 79 -9 98 -17 19 -9 55 -21 80 -28 25
-6 63 -20 85 -31 22 -10 66 -28 97 -38 32 -11 84 -34 115 -52 32 -18 72 -39
88 -47 17 -8 37 -20 45 -27 32 -27 62 -29 80 -4 18 22 19 22 105 10 47 -7 114
-22 148 -32 87 -27 115 -25 123 6 3 14 4 35 0 47 -6 25 27 68 54 68 8 0 26 7
39 16 13 10 41 18 61 19 66 4 116 54 92 91 -11 18 -136 74 -164 74 -13 0 -33
7 -44 15 -10 8 -27 15 -36 15 -9 0 -26 13 -37 29 -12 16 -37 35 -55 41 -19 6
-39 17 -46 24 -6 8 -18 12 -28 10 -31 -8 -176 26 -237 55 -60 30 -100 48 -209
96 -57 24 -157 85 -183 111 -7 7 -26 15 -43 19 -16 4 -33 11 -36 17 -7 11
-135 96 -179 118 -56 28 -57 30 -35 48 11 9 23 34 27 54 5 36 4 39 -28 52 -19
8 -51 17 -71 21 -43 8 -46 15 -20 38 13 12 21 14 29 6 13 -13 41 -30 93 -56
19 -10 46 -26 60 -35 33 -21 120 -70 193 -107 31 -16 65 -35 74 -42 27 -23
360 -191 383 -194 8 -1 32 -9 53 -19 54 -24 189 -48 248 -43 33 3 57 11 71 24
19 19 19 22 4 46 -15 22 -15 25 -1 31 30 11 276 -5 430 -28 17 -3 75 -10 130
-16 55 -7 129 -15 165 -20 36 -4 68 -5 73 -3 18 10 4 33 -35 55 -49 27 -58 44
-26 53 13 3 32 10 43 15 35 15 157 39 172 33 12 -5 137 13 253 37 25 5 63 12
85 16 22 4 60 16 85 26 24 11 60 23 80 27 20 4 35 13 36 21 0 8 5 24 9 34 8
19 6 22 -61 75 -32 25 -35 57 -10 111 20 43 148 213 198 263 22 22 22 30 1 50
-18 16 -21 17 -48 17 -24 0 -36 44 -23 82 15 47 59 137 69 144 13 7 11 44 -2
44 -6 0 -18 -4 -27 -9 -9 -5 -39 -5 -66 -1 -31 5 -66 3 -95 -5 -25 -6 -57 -9
-71 -5 -14 4 -52 13 -85 21 -33 7 -67 18 -76 26 -8 7 -19 13 -24 13 -5 0 -34
22 -66 50 -41 35 -63 48 -75 43 -40 -15 1 19 54 46 233 114 402 211 572 327
47 31 111 75 143 97 32 21 81 60 110 86 57 51 106 85 113 78 10 -9 -75 -123
-105 -140 -23 -14 -31 -25 -31 -47 0 -16 -4 -32 -10 -35 -5 -3 -10 -14 -10
-23 0 -35 -21 -92 -34 -92 -7 0 -31 -13 -52 -28 -39 -28 -39 -28 -68 -11 -23
14 -48 17 -110 16 -80 -2 -80 -2 -104 -37 -42 -63 -6 -136 61 -123 56 11 131
42 140 58 4 8 17 15 27 15 10 0 22 5 25 10 11 17 25 11 25 -11 0 -11 7 -35 16
-52 31 -59 34 -67 34 -86 0 -11 5 -23 10 -26 17 -11 11 -22 -12 -21 -14 1 -22
-4 -20 -12 1 -8 -10 -30 -26 -50 -63 -80 -68 -117 -21 -156 37 -32 41 -32 75
-2 21 18 30 37 37 82 20 128 7 210 -50 331 -8 17 -13 35 -9 41 7 12 66 13 66
1 0 -6 9 -29 20 -51 11 -23 20 -47 20 -53 0 -15 63 -75 78 -75 7 0 25 15 41
32 28 31 39 70 47 163 1 17 5 42 9 57 20 78 -29 177 -82 163 -13 -3 -23 -3
-23 1 0 6 68 112 85 131 5 6 26 35 45 64 61 93 282 303 403 383 38 26 73 46
78 46 16 0 10 -25 -15 -59 -31 -42 -53 -154 -37 -193 18 -48 83 -28 141 43 31
40 34 49 48 173 8 72 19 133 24 135 5 2 22 16 38 31 32 31 114 90 126 90 4 0
26 10 50 21 61 31 78 21 70 -38 -3 -25 -17 -60 -30 -78 -14 -17 -29 -54 -35
-81 -20 -97 -24 -109 -38 -125 -8 -10 -19 -48 -24 -85 -5 -38 -18 -92 -29
-121 -11 -29 -24 -80 -29 -115 -12 -72 -24 -87 -73 -93 -40 -5 -62 -14 -133
-55 -27 -16 -61 -35 -75 -42 -14 -7 -38 -23 -53 -35 -16 -13 -34 -23 -41 -23
-23 0 -106 -117 -106 -151 0 -5 15 -16 33 -24 28 -11 42 -11 94 1 34 8 82 27
105 43 24 15 61 40 83 55 22 14 50 33 63 42 29 22 35 15 17 -20 -8 -16 -15
-33 -15 -38 0 -5 -18 -47 -40 -93 -22 -46 -40 -88 -40 -93 0 -5 -11 -29 -25
-53 -13 -24 -32 -57 -41 -74 -9 -16 -31 -48 -48 -70 -17 -22 -35 -46 -41 -54
-12 -17 -145 -148 -179 -177 -25 -22 -26 -22 -63 -3 -46 22 -159 30 -264 19
-95 -11 -121 -23 -147 -68 l-20 -35 20 -39 c24 -45 59 -63 97 -50 14 5 37 6
51 2 24 -6 23 -6 -10 -19 -19 -7 -43 -17 -52 -22 -10 -5 -27 -9 -37 -9 -11 0
-23 -4 -26 -10 -10 -16 -23 -12 -21 7 2 25 -30 27 -53 4 -12 -12 -27 -21 -34
-21 -21 0 -158 -150 -177 -194 -29 -67 -17 -107 43 -138 35 -17 42 -18 51 -6
6 8 21 20 34 27 22 12 92 142 92 172 0 9 9 28 20 42 11 14 20 30 20 36 0 18
62 51 96 51 17 0 37 7 44 15 7 8 26 19 44 24 72 23 138 49 149 60 6 6 15 11
20 11 5 0 26 14 47 30 21 17 41 30 44 30 8 0 86 71 158 143 63 64 71 64 33 2
-14 -22 -25 -47 -25 -56 0 -8 -5 -20 -11 -26 -15 -15 -59 -123 -59 -145 0 -9
-4 -20 -10 -23 -20 -12 -11 -81 15 -109 36 -39 74 -35 105 12 97 146 152 351
130 481 l-11 65 60 120 c33 67 66 141 72 166 7 25 16 49 21 54 4 6 8 18 8 28
0 11 10 38 22 61 12 23 25 58 29 77 4 19 12 49 17 65 6 17 16 50 22 74 9 32
14 40 21 30 5 -8 9 -24 9 -37 0 -33 41 -100 65 -106 54 -15 86 7 105 71 16 52
22 151 10 158 -6 3 -10 17 -10 29 0 13 -6 29 -14 35 -11 9 -23 51 -31 106 -1
6 -5 30 -10 55 -12 65 -5 171 13 193 5 7 13 27 17 44 8 38 7 38 43 19 25 -13
30 -12 49 2 28 22 53 85 53 131 -1 54 -17 114 -34 127 -9 6 -16 18 -16 26 0 9
-6 21 -14 27 -8 7 -18 26 -21 42 -9 38 -27 37 -79 -6 -24 -19 -49 -35 -56 -35
-7 0 -30 -16 -51 -35 -22 -19 -46 -35 -55 -35 -22 0 -47 -67 -41 -110 5 -39
-7 -58 -57 -98 -17 -13 -37 -20 -47 -17 -19 6 -40 -21 -32 -42 3 -7 -8 -15
-24 -19 -26 -7 -49 -22 -111 -74 -13 -11 -28 -20 -34 -20 -9 0 -32 -17 -86
-61 -32 -27 -18 2 25 53 46 53 81 98 151 195 18 25 45 61 60 79 15 18 45 58
67 88 22 31 48 56 58 56 35 0 97 41 126 83 16 24 36 49 45 56 31 25 7 91 -32
91 -19 0 -14 20 13 56 14 18 25 35 25 38 0 3 20 42 45 87 25 45 45 87 45 94 0
16 25 37 34 28 4 -4 26 -8 49 -9 107 -3 164 -17 215 -50 2 -1 -4 -16 -12 -33
-9 -16 -16 -39 -16 -50 0 -11 -11 -40 -24 -65 -13 -25 -26 -50 -28 -56 -2 -8
-11 -8 -32 0 -26 9 -31 7 -68 -30 -37 -37 -40 -43 -33 -77 8 -47 5 -44 53 -50
73 -10 127 49 97 107 -14 28 -14 31 7 56 13 14 23 29 24 32 2 21 24 60 36 64
10 4 13 -28 14 -166 1 -100 6 -190 13 -216 7 -25 18 -70 25 -100 8 -30 21 -70
31 -88 23 -44 128 -113 181 -120 36 -4 45 0 68 24 14 16 26 35 26 42 0 7 16
29 35 49 41 42 54 101 35 166 -6 23 -14 54 -18 68 -8 29 -87 95 -135 112 -29
10 -33 8 -69 -34 -41 -47 -48 -76 -22 -86 16 -6 25 1 49 42 17 29 85 -24 107
-83 25 -65 23 -77 -17 -117 -40 -38 -68 -50 -88 -38 -116 72 -163 149 -172
288 -11 161 -12 325 -2 368 5 23 24 72 42 108 31 64 32 65 44 40 16 -37 38
-73 48 -80 4 -3 16 -22 26 -42 17 -34 18 -39 3 -67 -9 -17 -16 -39 -16 -48 0
-23 50 -95 61 -88 5 2 23 -2 40 -11 31 -17 32 -16 65 16 46 44 46 82 0 132
-22 24 -43 37 -59 37 -28 0 -63 40 -92 105 -10 22 -29 64 -43 93 -17 36 -21
56 -14 65 5 6 20 47 32 89 20 68 27 80 59 99 36 21 36 21 70 3 25 -14 37 -29
44 -54 5 -19 17 -44 28 -56 11 -11 17 -23 14 -25 -8 -8 32 -103 48 -113 20
-13 87 39 87 68 0 13 13 32 30 44 17 13 30 32 30 43 0 11 4 28 10 38 16 31
-11 53 -81 68 -35 7 -77 10 -94 7 -32 -6 -105 19 -105 37 0 5 11 21 25 35 42
41 58 82 51 128 -4 22 -8 74 -11 114 -3 40 -9 81 -14 91 -15 26 -15 128 -2
211 7 41 16 101 21 133 4 32 10 61 13 64 11 10 53 -31 72 -70 10 -21 32 -47
47 -58 19 -14 28 -29 28 -48 0 -15 10 -47 23 -71 31 -62 105 -97 147 -70 11 7
14 26 12 77 -2 57 -6 71 -29 95 -29 30 -77 37 -114 18 -16 -9 -21 -7 -28 14
-9 23 -64 92 -132 164 -23 24 -29 39 -25 55 4 12 11 60 16 107 6 47 12 91 15
98 3 7 23 12 50 12 42 0 47 -3 67 -35 11 -20 33 -42 49 -51 16 -8 29 -19 29
-23 0 -5 12 -23 26 -40 34 -41 75 -42 115 -2 30 31 37 59 18 78 -9 9 -8 22 5
53 25 63 22 78 -19 86 -19 3 -45 4 -57 1 -12 -4 -28 -1 -35 5 -15 12 -75 -3
-125 -31 -22 -12 -33 -13 -67 -2 -47 14 -47 12 -26 134 13 71 14 103 5 169 -6
44 -13 104 -15 132 -2 29 -11 77 -18 107 -27 101 -51 269 -40 280 6 6 37 -21
90 -78 65 -71 79 -92 72 -108 -13 -34 -10 -44 25 -83 28 -31 42 -38 73 -39 83
-3 108 55 55 132 -24 34 -34 40 -69 43 -37 3 -51 13 -154 115 -97 96 -114 117
-116 147 -5 56 -20 143 -31 175 -6 17 -15 53 -21 80 -5 28 -12 62 -15 76 -9
41 12 59 76 64 l56 5 5 -32 c3 -18 1 -37 -4 -42 -16 -18 -9 -44 17 -65 31 -25
62 -26 108 -7 61 26 111 130 73 153 -8 4 -17 16 -20 27 -6 15 -14 17 -45 12
-20 -4 -81 -9 -134 -12 -104 -5 -113 -1 -88 44 15 29 25 121 25 232 -1 93 -4
111 -28 160 -56 115 -72 138 -157 228 -19 20 -40 48 -46 62 -6 14 -24 32 -40
40 -16 8 -45 26 -64 41 -19 14 -44 29 -55 33 -21 6 -75 80 -75 102 0 7 -16 42
-36 78 -19 36 -32 66 -28 66 8 0 86 -51 94 -61 7 -10 69 -46 115 -69 59 -29
100 -85 100 -139 1 -38 5 -48 40 -77 44 -37 93 -45 116 -18 15 18 15 105 -1
133 -12 23 -64 45 -89 38 -13 -3 -29 5 -48 24 -15 16 -32 29 -38 29 -5 0 -26
16 -46 36 -38 37 -60 52 -114 78 -79 37 -112 50 -140 56 -16 3 -31 12 -33 20
-2 12 12 15 80 16 133 1 177 37 148 125 -7 21 -24 48 -36 60 -28 26 -31 44 -6
34 9 -4 27 -7 40 -6 18 1 22 -4 22 -28 0 -44 37 -118 74 -146 39 -29 63 -32
83 -7 14 16 14 16 9 -2 -11 -32 20 -66 58 -66 27 0 41 8 67 38 18 20 44 42 58
48 35 16 71 51 72 72 1 9 1 48 0 87 -1 66 -3 71 -38 107 -23 24 -47 38 -67 40
-25 2 -32 8 -34 30 -4 34 -28 56 -44 40 -7 -7 -28 -12 -48 -12 -37 0 -77 -21
-122 -63 -42 -39 -36 -63 22 -99 53 -33 53 -32 40 -63 -8 -20 -8 -20 -16 1
-14 35 -71 76 -94 69 -37 -12 -28 9 53 128 51 76 61 126 32 163 -15 19 -16 18
-38 -8 -12 -16 -25 -28 -28 -28 -3 0 -3 21 1 48 4 26 4 55 -1 64 -13 24 -55
33 -100 21 -22 -6 -44 -6 -53 -1 -9 5 -23 5 -34 -1 -11 -6 -24 -6 -35 0 -12 7
-30 4 -63 -11 -26 -11 -57 -20 -70 -20 -24 0 -50 -33 -39 -51 4 -5 -13 -28
-38 -49 -41 -36 -45 -44 -57 -115 -16 -94 -25 -88 -64 45 -16 52 -36 113 -45
135 -20 49 -84 114 -136 138 -22 10 -53 25 -68 33 -16 8 -36 14 -45 14 -9 0
-45 32 -80 70 -72 79 -67 85 41 49 34 -11 79 -23 99 -25 21 -2 52 -14 69 -26
25 -19 30 -28 25 -51 -5 -24 -1 -30 28 -44 62 -29 116 2 116 66 0 65 -57 102
-105 67 -20 -15 -30 -12 -110 26 -34 16 -144 43 -262 65 -27 5 -139 89 -213
160 -8 7 -24 20 -34 27 -20 14 -14 36 10 36 7 0 33 -18 55 -40 31 -30 49 -40
75 -40 35 0 64 28 64 61 0 28 -52 99 -72 99 -15 0 -10 9 22 42 46 49 57 79 41
114 -20 46 -103 22 -165 -47 -34 -37 -40 -40 -62 -30 -13 6 -50 13 -82 16 -52
6 -59 4 -81 -19 -32 -34 -19 -76 27 -88 42 -11 48 -25 25 -56 -32 -45 -35 -62
-12 -93 26 -37 50 -37 91 0 l32 29 43 -36 c34 -29 43 -43 43 -68 0 -35 56
-126 99 -159 14 -11 43 -37 65 -57 38 -36 50 -42 69 -39 18 3 0 -19 -33 -41
-44 -30 -52 -58 -16 -58 17 0 34 11 51 34 21 27 32 34 53 31 15 -2 33 -4 40
-4 7 -1 16 -9 20 -18 9 -21 61 -81 115 -133 20 -19 37 -39 37 -43 0 -5 11 -23
25 -41 24 -31 24 -36 18 -132 -4 -54 -7 -145 -7 -201 1 -89 -1 -103 -16 -103
-18 0 -80 60 -80 78 0 13 -71 99 -129 157 -23 22 -41 44 -41 49 0 5 -11 24
-25 42 -14 18 -25 37 -25 43 0 5 -11 23 -25 39 -21 25 -24 37 -19 69 3 21 1
58 -6 82 -12 46 -64 111 -87 111 -16 0 -67 -47 -74 -68 -4 -13 -14 -6 -64 47
-5 6 -35 30 -65 54 -43 34 -54 49 -53 68 2 13 3 34 4 46 1 19 8 22 48 25 l46
3 9 49 c8 45 7 51 -13 67 -17 14 -33 17 -69 12 -37 -4 -55 -1 -85 17 -20 12
-37 26 -37 32 0 24 -34 78 -49 78 -9 0 -27 -9 -40 -19 -20 -15 -23 -24 -18
-54 6 -36 5 -36 -27 -35 -18 1 -38 -2 -44 -6 -18 -11 -48 10 -65 46 -13 27
-25 36 -63 46 -49 13 -76 31 -155 101 -35 31 -62 46 -95 52 -35 7 -59 20 -95
54 -28 26 -58 45 -71 45 -24 0 -78 29 -113 60 -11 10 -31 21 -45 25 -14 4 -56
22 -95 40 -38 18 -81 36 -95 40 -14 4 -34 15 -45 25 -13 12 -34 18 -61 17 -31
-1 -55 7 -93 31 -29 17 -63 32 -76 32 -13 0 -44 9 -70 20 -90 39 -196 70 -236
70 -44 0 -191 39 -261 69 -32 13 -49 16 -62 9 -26 -15 -100 -12 -134 6 -17 9
-42 16 -55 16 -13 0 -27 3 -31 8 -4 4 -38 7 -74 7 -70 0 -68 -1 -55 46 2 9 -8
30 -23 48 l-27 32 27 -7 c19 -4 33 -1 46 11 26 24 25 37 -6 70 -14 15 -23 33
-20 40 7 21 -15 35 -56 35 -43 0 -45 3 -19 29 12 12 23 16 32 10 8 -5 28 -9
46 -9 35 0 50 23 38 60 -8 24 -54 50 -88 50 -23 0 -24 1 -15 56 5 30 10 61 11
67 4 22 -35 18 -79 -8 -59 -35 -70 -25 -54 49 6 31 9 60 5 66 -12 20 -44 9
-66 -22 -13 -17 -25 -26 -27 -20 -2 6 4 22 12 34 24 34 20 57 -11 64 -26 7
-53 -13 -53 -40 0 -6 -11 -19 -24 -28 -24 -17 -24 -17 -30 22 -5 31 -11 41
-31 46 -37 9 -55 -11 -55 -62 0 -40 -2 -44 -24 -44 -17 0 -27 -7 -32 -22 -6
-20 -9 -16 -21 25 -12 42 -17 47 -43 47 -30 0 -34 -5 -46 -73 -7 -44 -24 -60
-24 -23 0 14 -4 28 -10 31 -5 3 -10 15 -10 26 0 10 5 19 10 19 19 0 10 49 -12
64 -25 18 -37 19 -54 8z m209 -213 c-4 -13 -9 -17 -15 -11 -11 11 -3 32 12 32
4 0 6 -9 3 -21z m267 -186 c-1 -11 -69 -53 -86 -53 -17 0 -19 26 -2 36 10 6
58 20 81 23 4 1 7 -2 7 -6z m124 -134 c-3 -5 -10 -7 -15 -3 -5 3 -7 10 -3 15
3 5 10 7 15 3 5 -3 7 -10 3 -15z m-579 -9 c-3 -5 -11 -10 -16 -10 -6 0 -7 5
-4 10 3 6 11 10 16 10 6 0 7 -4 4 -10z m-1043 -37 c33 -20 112 -95 201 -193
66 -71 64 -75 -23 -86 -30 -4 -71 -15 -90 -25 -45 -23 -123 -49 -180 -58 -25
-5 -65 -17 -90 -29 -25 -11 -63 -24 -85 -28 -45 -7 -141 -62 -197 -111 -44
-39 -81 -58 -128 -68 -47 -10 -128 -53 -163 -87 -16 -16 -41 -31 -55 -34 -57
-12 -82 -27 -121 -74 -31 -37 -51 -51 -79 -56 -43 -8 -138 -72 -225 -153 -34
-32 -70 -62 -79 -67 -18 -10 -125 -105 -224 -199 -35 -33 -80 -75 -101 -93
-52 -44 -68 -61 -102 -102 -23 -27 -44 -40 -93 -54 -34 -10 -76 -22 -93 -28
-34 -12 -102 -27 -158 -35 -20 -3 -40 -9 -43 -14 -3 -5 -22 -9 -44 -9 -34 0
-38 2 -32 22 3 12 18 33 34 46 15 13 38 45 51 70 16 31 31 48 45 50 12 2 27
13 33 25 14 26 93 107 105 107 16 1 81 65 97 95 8 17 38 55 67 85 28 30 58 65
67 78 10 14 26 22 43 22 15 0 30 7 33 14 4 11 16 13 39 10 27 -4 40 1 71 27
33 27 38 36 35 68 l-3 36 -65 3 c-54 2 -69 -1 -87 -18 -12 -11 -28 -20 -36
-20 -7 0 -18 -5 -25 -12 -21 -21 -25 0 -8 37 10 20 28 40 42 45 13 5 24 15 24
21 0 20 62 90 101 114 20 14 40 33 44 45 3 11 11 20 16 20 10 0 76 52 146 117
48 43 62 54 124 100 30 22 63 50 73 62 11 11 28 21 38 21 10 0 21 7 24 15 9
23 94 76 131 82 18 3 59 1 91 -6 31 -6 72 -13 90 -15 18 -2 38 -9 45 -14 7 -5
37 -13 67 -17 30 -4 60 -11 66 -16 7 -6 16 -9 20 -7 5 1 33 -4 62 -11 29 -7
62 -11 74 -8 12 3 29 2 39 -4 33 -17 109 28 109 65 0 2 -17 21 -37 40 -40 37
-170 96 -213 96 -14 0 -47 8 -74 19 -55 20 -51 24 39 36 28 4 57 11 65 15 8 4
46 11 84 14 38 4 74 9 78 12 9 6 23 7 197 18 46 3 86 8 89 11 9 9 23 6 54 -12z
m1602 -67 c31 -28 32 -36 7 -36 -20 0 -34 14 -44 43 -9 24 7 21 37 -7z m-205
-22 c-6 -7 -15 -11 -21 -8 -5 3 -4 12 3 20 6 7 15 11 21 8 5 -3 4 -12 -3 -20z
m-2922 -196 c-3 -7 -5 -2 -5 12 0 14 2 19 5 13 2 -7 2 -19 0 -25z m-147 -23
c0 -8 -7 -15 -15 -15 -8 0 -15 7 -15 15 0 8 7 15 15 15 8 0 15 -7 15 -15z
m6116 -712 c-7 -7 -26 7 -26 19 0 6 6 6 15 -2 9 -7 13 -15 11 -17z m64 -56 c0
-7 14 -25 31 -40 18 -15 29 -30 26 -34 -10 -9 -53 23 -77 57 l-21 30 20 0 c12
0 21 -6 21 -13z m299 -227 c21 -10 52 -33 69 -49 30 -31 99 -158 90 -167 -3
-2 -18 12 -34 33 -15 21 -41 52 -57 68 -58 62 -119 135 -113 135 4 0 24 -9 45
-20z m-6949 -77 c0 -14 -14 -28 -52 -53 -23 -15 -40 -36 -44 -53 -3 -16 -17
-33 -33 -42 -31 -15 -96 -138 -85 -157 4 -7 2 -8 -4 -4 -7 4 -12 2 -12 -3 0
-6 -5 -11 -10 -11 -14 0 -3 41 31 117 43 94 78 139 139 178 56 35 70 41 70 28z
m324 -195 c-3 -7 -23 -25 -45 -40 -21 -16 -51 -46 -67 -69 -15 -22 -47 -63
-71 -92 -24 -28 -52 -69 -62 -91 -10 -22 -39 -69 -66 -103 -41 -54 -52 -62
-73 -58 -14 3 -75 10 -137 17 l-111 12 5 35 c3 20 16 54 29 76 12 22 38 70 56
107 34 68 89 118 131 118 11 0 54 11 96 24 105 33 158 46 213 55 26 4 51 10
55 14 12 13 53 8 47 -5z m7323 -20 c-3 -7 -5 -2 -5 12 0 14 2 19 5 13 2 -7 2
-19 0 -25z m-519 -43 c8 -16 19 -48 23 -70 4 -22 13 -58 19 -80 6 -22 15 -62
20 -90 9 -56 13 -68 47 -144 22 -50 145 -191 167 -191 16 0 56 -43 56 -59 0
-14 -59 -61 -76 -61 -3 0 -20 -11 -37 -24 -44 -34 -79 -25 -115 28 -15 22 -34
57 -42 76 -7 19 -24 48 -37 63 -13 16 -23 35 -23 42 0 7 -18 36 -40 63 -38 49
-39 52 -27 84 9 23 13 93 12 230 -1 192 0 197 18 180 11 -9 26 -30 35 -47z
m816 -67 c-20 -64 -24 -71 -39 -58 -12 10 -11 17 11 46 31 40 38 43 28 12z
m-724 -71 c0 -18 -2 -19 -10 -7 -13 20 -13 43 0 35 6 -3 10 -16 10 -28z m730
-77 c20 -60 12 -64 -23 -12 -19 29 -22 43 -15 56 13 23 17 17 38 -44z m-678
-20 c16 0 19 -5 14 -24 -7 -28 15 -56 45 -56 17 0 69 -66 69 -88 0 -13 49
-104 66 -123 35 -39 6 -53 -30 -14 -13 14 -27 25 -32 25 -12 0 -67 52 -98 93
-25 32 -66 144 -66 180 0 9 -4 17 -9 17 -10 0 -21 47 -12 56 3 3 12 -10 20
-30 9 -24 20 -36 33 -36z m73 41 c-3 -6 -11 -8 -17 -5 -6 4 -5 9 3 15 16 10
23 4 14 -10z m491 -37 c-10 -22 -11 -22 -23 8 -17 39 -17 38 10 25 20 -9 22
-14 13 -33z m-8192 -203 c6 -9 -10 -111 -22 -141 -3 -8 -5 -18 -4 -22 1 -3
-16 -31 -36 -62 -26 -38 -53 -64 -86 -81 l-47 -25 7 22 c15 49 22 64 38 77 9
7 16 21 16 31 0 9 20 47 44 84 24 37 49 80 56 96 13 30 24 37 34 21z m259 -16
c27 -11 20 -48 -20 -96 -21 -24 -40 -46 -44 -49 -20 -16 -59 -94 -59 -117 0
-55 -20 -102 -49 -118 -31 -15 -61 -77 -61 -123 0 -41 -33 -86 -86 -117 -27
-16 -72 -47 -100 -69 -29 -23 -84 -61 -123 -85 -39 -25 -73 -52 -76 -62 -3 -9
-17 -19 -30 -22 -25 -4 -34 6 -16 18 6 3 13 27 17 53 4 26 16 65 27 87 11 22
23 62 26 89 4 34 12 52 26 60 29 16 35 27 35 63 0 17 4 43 10 57 10 27 104 96
130 96 9 0 39 21 68 48 43 40 55 59 77 124 14 42 28 99 30 125 2 26 4 50 4 52
2 6 195 -6 214 -14z m7637 -225 c10 -5 24 -27 31 -47 11 -34 45 -115 84 -198
50 -109 49 -104 32 -138 -63 -132 -78 -169 -92 -222 -8 -33 -18 -92 -22 -132
-3 -40 -10 -70 -14 -67 -5 3 -9 15 -9 28 0 13 -11 44 -25 70 -14 26 -25 62
-25 81 0 32 -79 228 -101 250 -5 5 -9 17 -9 27 0 9 -21 58 -46 107 -46 89 -46
89 -28 115 11 13 35 32 55 41 20 9 47 26 60 38 20 18 74 52 87 56 2 1 12 -3
22 -9z m211 -162 c47 -46 89 -93 93 -106 4 -12 16 -26 26 -32 38 -20 95 -257
83 -345 -4 -27 -6 -54 -5 -58 3 -11 -39 -107 -47 -107 -3 0 -14 35 -25 78 -10
42 -27 97 -37 121 -10 24 -19 52 -19 63 0 11 -11 38 -25 61 -24 43 -65 159
-65 188 0 9 -7 22 -15 29 -8 7 -15 20 -15 30 0 10 -16 48 -35 86 -62 121 -46
120 86 -8z m-8488 -157 c-5 -18 -33 -38 -33 -24 0 6 30 43 36 43 1 0 0 -9 -3
-19z m8485 -130 c7 -21 12 -52 12 -68 0 -16 5 -34 11 -40 6 -6 15 -28 20 -49
10 -39 15 -54 45 -154 9 -30 16 -68 16 -83 -1 -16 6 -40 15 -54 14 -21 15 -30
4 -59 -17 -47 -16 -147 3 -217 8 -33 15 -62 14 -65 -2 -8 11 -61 20 -82 3 -8
7 -19 8 -25 10 -67 18 -96 25 -101 14 -8 11 -51 -4 -57 -7 -3 -26 -3 -41 0
-33 7 -132 -23 -166 -49 l-25 -20 -7 39 c-8 40 -25 171 -38 288 -5 39 -13 95
-19 125 -6 30 -9 78 -6 106 5 41 1 61 -15 92 -20 39 -20 42 -5 148 16 113 33
192 45 209 4 6 10 27 13 48 6 38 42 107 56 107 4 0 13 -17 19 -39z m-8173 -37
c-14 -26 -25 -60 -25 -75 0 -34 -33 -125 -54 -148 -17 -18 -36 -84 -43 -151
-8 -71 -36 -90 -141 -95 -48 -2 -102 -9 -121 -16 -27 -10 -35 -9 -42 2 -5 8
-6 21 -3 29 15 39 36 119 41 155 4 32 15 50 55 88 27 26 56 47 62 47 7 0 21 8
32 18 67 60 137 113 187 143 31 18 57 37 57 41 0 5 4 8 10 8 5 0 -2 -21 -15
-46z m-192 -556 c3 -13 6 -60 6 -106 1 -73 -2 -91 -30 -150 -25 -54 -49 -143
-49 -184 0 -4 -26 -20 -57 -34 -32 -15 -59 -31 -61 -36 -2 -4 -8 -8 -14 -8
-11 0 -69 -24 -111 -47 -16 -8 -30 -13 -33 -10 -8 8 -7 94 1 108 12 18 34 128
35 167 0 22 9 42 26 59 38 38 48 72 58 196 2 21 5 40 8 43 10 9 93 22 154 23
56 1 62 -1 67 -21z m8541 -60 c-6 -19 -7 -19 -16 -4 -5 9 -6 26 -2 38 6 19 7
19 16 4 5 -9 6 -26 2 -38z m-8804 -21 c0 -12 -39 -76 -43 -70 -7 12 20 73 33
73 5 0 10 -1 10 -3z m8816 -55 c8 -20 9 -41 5 -45 -12 -12 -17 0 -26 53 -8 51
3 47 21 -8z m24 -119 c0 -44 -5 -41 -14 10 -5 27 -4 37 3 32 6 -3 11 -22 11
-42z m-9006 -309 c-1 -47 -7 -91 -13 -97 -6 -6 -11 -37 -11 -69 0 -69 -15 -77
-24 -12 -9 72 -7 106 10 160 18 56 36 104 38 104 1 0 1 -39 0 -86z m8994 60
c28 -6 30 -10 41 -78 7 -39 13 -104 15 -144 2 -65 0 -74 -20 -87 -19 -12 -84
-98 -84 -110 0 -2 -9 -15 -21 -27 -12 -13 -49 -60 -84 -106 -49 -64 -65 -79
-69 -65 -3 10 -4 85 -2 168 2 93 -1 158 -7 173 -8 17 -8 28 0 41 6 10 15 44
19 77 9 64 9 61 -1 87 -4 10 -3 17 4 17 6 0 29 11 50 24 50 32 100 42 159 30z
m-9013 -321 c4 -10 9 -29 11 -41 l3 -24 -20 23 c-20 23 -26 59 -10 59 5 0 12
-8 16 -17z m9076 -146 c-4 -23 -5 -85 -4 -137 1 -87 -14 -173 -37 -205 -4 -5
-13 -39 -20 -75 -7 -36 -17 -72 -21 -81 -5 -9 -11 -50 -15 -90 -3 -41 -8 -76
-9 -78 -2 -1 0 -13 5 -26 l9 -23 -127 -4 c-70 -2 -128 -3 -128 -3 -6 1 18 140
24 149 5 6 12 67 16 136 3 69 10 142 16 162 10 33 76 134 121 183 62 68 79 89
79 96 0 5 8 18 18 28 9 10 28 35 42 54 l25 35 6 -40 c3 -22 3 -58 0 -81z
m-9051 -184 c0 -22 -16 -15 -31 15 -23 46 -23 48 5 23 14 -14 26 -30 26 -38z
m120 -20 c11 -8 27 -12 35 -9 17 6 22 -39 5 -49 -5 -3 -10 2 -10 13 0 19 -37
42 -66 42 -8 0 -14 6 -13 13 3 26 -2 37 -16 37 -16 0 -20 12 -8 23 3 4 16 -7
29 -24 13 -17 32 -38 44 -46z m-100 -20 c-1 -5 -7 -19 -15 -33 l-14 -25 -1 33
c0 22 5 32 15 32 8 0 15 -3 15 -7z m210 -53 c0 -5 -5 -10 -11 -10 -5 0 -7 5
-4 10 3 6 8 10 11 10 2 0 4 -4 4 -10z m8777 -312 c-3 -8 -6 -5 -6 6 -1 11 2
17 5 13 3 -3 4 -12 1 -19z m-53 -174 c10 -26 6 -116 -7 -165 -14 -53 -27 -68
-84 -93 -23 -10 -50 -27 -59 -37 -10 -11 -21 -19 -27 -19 -5 0 -22 -11 -38
-25 -38 -31 -128 -77 -139 -70 -10 6 2 47 31 112 10 24 19 54 19 67 0 14 5 37
11 53 6 15 14 61 18 102 l6 74 118 3 c66 1 121 5 125 8 10 10 20 6 26 -10z
m-8529 -134 c4 -27 11 -53 16 -56 19 -11 39 -78 39 -129 0 -39 6 -61 25 -90
18 -25 29 -59 35 -106 4 -39 13 -76 20 -84 9 -11 3 -27 -29 -77 -22 -35 -50
-74 -61 -88 -11 -14 -23 -36 -27 -50 -3 -14 -14 -33 -24 -43 -11 -10 -19 -24
-19 -32 0 -30 -18 -14 -39 34 -11 27 -21 52 -21 55 0 3 -11 30 -25 60 -14 30
-25 62 -25 71 0 9 -7 29 -15 44 -13 26 -49 157 -81 296 l-13 60 52 47 c29 26
57 48 64 48 6 0 21 12 33 27 19 25 66 61 82 62 3 1 9 -21 13 -49z m8579 -220
c1 -101 -17 -163 -50 -179 -13 -6 -24 -15 -24 -21 0 -5 -9 -10 -21 -10 -16 0
-19 4 -14 18 5 9 12 40 17 67 6 28 16 64 24 80 8 17 19 57 25 90 6 33 13 64
16 69 13 21 27 -36 27 -114z m-83 52 c-5 -10 -13 -42 -17 -71 -4 -29 -15 -69
-25 -89 -11 -20 -19 -43 -19 -52 0 -31 -38 -113 -56 -122 -28 -15 -103 -97
-129 -143 -20 -34 -27 -59 -40 -140 -1 -5 -3 -31 -3 -57 -2 -44 -4 -48 -26
-48 -14 0 -37 5 -53 11 -15 6 -46 13 -68 15 -54 5 -105 14 -105 19 0 3 11 28
24 57 41 90 76 175 76 186 0 31 60 157 78 163 27 10 37 29 21 40 -8 5 -9 9 -4
9 6 0 16 14 24 31 7 17 25 35 39 40 14 5 43 25 64 44 21 19 43 35 50 35 11 0
48 22 133 81 41 28 54 25 36 -9z m-141 -446 c-6 -19 -18 -40 -26 -47 -8 -6
-14 -26 -13 -43 1 -17 -7 -49 -19 -71 -12 -22 -22 -50 -22 -62 0 -12 -4 -25
-10 -28 -15 -10 -12 83 5 150 10 36 29 75 51 102 41 50 51 50 34 -1z m-8114
-106 c8 -7 14 -23 14 -35 0 -12 7 -29 17 -36 17 -15 37 -55 62 -129 15 -43 15
-47 -7 -90 -13 -25 -32 -54 -43 -66 -10 -11 -19 -28 -19 -37 0 -33 30 -16 70
38 22 30 45 55 50 55 12 0 23 -19 26 -44 1 -12 7 -35 14 -52 12 -29 10 -37
-28 -118 -23 -48 -42 -91 -42 -95 0 -5 -16 -34 -36 -65 l-37 -55 -18 23 c-11
13 -19 29 -19 35 0 5 -34 77 -75 160 -41 82 -75 153 -75 157 0 4 -6 15 -14 23
-25 28 -89 195 -76 199 6 2 22 14 36 26 13 11 36 30 51 41 15 11 50 43 77 71
47 47 51 49 54 28 2 -12 10 -28 18 -34z m229 -759 c50 -38 65 -65 65 -119 0
-21 -49 24 -61 56 -5 12 -24 30 -43 39 -35 16 -51 37 -40 54 10 16 26 10 79
-30z m-25 -247 c0 -9 -5 -14 -12 -12 -18 6 -21 28 -4 28 9 0 16 -7 16 -16z
m255 -168 c19 -14 19 -15 1 -35 -15 -16 -29 -20 -77 -18 -67 1 -72 13 -15 32
21 8 43 18 49 24 14 14 19 14 42 -3z m709 -406 c67 -38 109 -91 100 -125 -8
-32 17 -72 48 -77 17 -2 30 -18 49 -58 15 -30 32 -61 39 -68 6 -7 14 -28 17
-47 3 -19 9 -35 13 -35 8 0 20 -38 25 -77 3 -24 31 -115 45 -148 23 -54 -2
-69 -58 -35 -18 11 -36 20 -40 20 -5 0 -30 21 -58 46 -27 26 -61 52 -75 58
-26 11 -52 31 -141 104 -29 23 -59 42 -67 42 -9 0 -24 14 -33 30 -9 17 -27 34
-40 39 -13 5 -32 18 -43 30 -17 20 -18 25 -5 44 18 28 23 155 8 220 -5 26 -8
50 -6 53 3 2 30 -1 62 -8 50 -10 59 -9 74 5 22 22 26 22 86 -13z m-341 -167
c4 -6 4 -19 1 -28 -6 -14 -9 -13 -30 6 -28 27 -29 38 -7 87 l16 37 6 -45 c4
-25 10 -50 14 -57z m646 -88 c35 -22 84 -55 108 -72 24 -18 48 -33 55 -33 6 0
21 -9 32 -19 26 -23 196 -121 211 -121 6 0 22 -11 35 -25 12 -13 39 -30 59
-36 20 -6 70 -28 111 -49 41 -21 89 -41 107 -44 48 -11 83 -43 83 -76 0 -16 5
-32 10 -35 6 -4 8 -10 5 -15 -3 -5 -1 -17 4 -27 28 -52 39 -106 40 -195 2
-104 -3 -113 -44 -85 -11 7 -36 20 -55 27 -19 8 -46 22 -59 32 -13 10 -38 18
-55 18 -17 1 -42 7 -56 15 -14 8 -35 14 -47 15 -12 0 -38 14 -56 30 -19 17
-44 30 -55 30 -12 0 -37 11 -57 24 -20 14 -66 39 -103 56 -73 34 -71 33 -130
72 -29 20 -42 36 -47 60 -3 18 -10 42 -15 53 -4 11 -16 49 -25 85 -9 36 -25
84 -36 107 -10 24 -19 51 -19 60 -1 10 -7 29 -15 43 -8 14 -14 35 -15 46 0 12
-8 32 -18 45 -21 27 -36 62 -25 57 5 -1 37 -21 72 -43z m4073 -437 c-28 -45
-101 -97 -136 -97 -16 -1 -57 -6 -91 -12 -34 -6 -77 -9 -96 -7 -33 3 -32 4 31
30 36 14 97 36 135 48 39 12 90 32 115 45 60 32 66 31 42 -7z m-663 -218 c-13
-11 -35 -23 -49 -26 -14 -4 -35 -16 -47 -27 -15 -13 -30 -18 -44 -14 -13 4
-29 1 -36 -5 -20 -16 -230 -18 -251 -1 -9 7 -12 13 -7 13 20 1 150 20 170 24
11 2 69 14 130 26 60 12 118 26 130 30 29 11 31 3 4 -20z m-1304 -91 c83 -5
173 -10 200 -11 l50 -3 -50 -8 c-143 -21 -206 -35 -272 -64 -17 -7 -36 -13
-41 -13 -6 0 -24 -12 -41 -26 l-31 -26 0 87 c0 79 2 86 18 79 9 -4 85 -11 167
-15z m671 -8 c-8 -13 -65 -22 -94 -14 l-27 7 25 7 c36 10 102 10 96 0z"/>
<path d="M9520 10748 c-8 -13 -20 -35 -27 -50 -13 -31 -29 -34 -56 -14 -35 27
-106 -10 -107 -56 0 -28 38 -60 67 -56 23 3 28 -2 35 -29 5 -18 18 -38 30 -44
18 -10 25 -7 51 22 29 34 38 36 86 17 14 -5 45 -12 68 -14 45 -4 63 12 63 54
0 25 -64 90 -96 98 -16 4 -24 13 -24 28 0 57 -61 87 -90 44z"/>
<path d="M8720 10534 c-19 -14 -41 -31 -49 -39 -11 -11 -19 -11 -47 1 -42 17
-68 17 -119 0 -31 -11 -42 -21 -49 -46 -11 -37 -4 -44 61 -61 l43 -11 -19 -27
c-28 -41 -23 -121 9 -121 4 0 28 16 55 36 l47 37 24 -27 c33 -35 73 -44 91
-21 20 28 16 85 -8 111 l-20 22 30 33 c17 18 31 39 31 46 0 7 5 22 12 33 10
15 9 23 -6 39 -24 27 -42 25 -86 -5z"/>
<path d="M9344 10502 c-20 -14 -24 -43 -9 -72 15 -29 15 -30 -12 -36 -37 -9
-53 -22 -53 -44 0 -26 26 -43 73 -49 40 -6 42 -8 45 -42 3 -41 23 -63 64 -73
24 -5 28 -3 34 20 4 14 4 45 0 70 -4 35 -3 44 9 44 20 0 74 60 75 83 0 26 -28
77 -44 77 -7 0 -28 -5 -46 -12 -31 -10 -35 -9 -52 15 -19 27 -60 36 -84 19z"/>
<path d="M9725 10388 c-66 -9 -150 -47 -150 -68 0 -20 62 -38 134 -39 53 -1
72 4 116 29 72 41 85 58 60 76 -20 15 -56 16 -160 2z"/>
<path d="M9939 4818 c-22 -18 -39 -72 -39 -124 0 -34 6 -48 27 -69 15 -14 35
-25 44 -25 9 0 35 23 58 50 23 28 48 50 55 50 16 0 46 42 46 64 0 9 -9 20 -19
26 -25 13 -68 -5 -76 -32 -10 -29 -21 -21 -31 25 -10 46 -35 59 -65 35z"/>
<path d="M10107 4402 c-21 -23 -22 -62 -2 -88 8 -10 15 -29 15 -40 0 -27 42
-56 75 -51 17 2 31 15 45 43 24 45 19 78 -13 95 -12 7 -33 23 -46 35 -29 29
-52 30 -74 6z"/>
<path d="M4429 2299 c-11 -21 -8 -79 7 -126 5 -18 2 -23 -10 -23 -9 0 -35 -17
-57 -39 -47 -45 -53 -81 -22 -133 21 -35 36 -38 104 -20 34 9 38 7 63 -24 30
-38 67 -44 104 -18 26 18 29 58 7 100 l-15 29 48 15 c41 13 47 19 50 46 4 41
-18 58 -87 64 l-56 5 -5 45 c-8 62 -24 86 -61 94 -49 9 -57 8 -70 -15z"/>
<path d="M4090 2199 c-46 -8 -149 -61 -178 -92 l-23 -25 22 -16 c14 -10 44
-16 75 -16 69 0 217 20 229 31 5 5 15 9 22 9 20 0 94 52 90 63 -9 27 -168 58
-237 46z"/>
<path d="M4936 1965 c-18 -19 -21 -57 -5 -86 18 -34 2 -55 -56 -74 -62 -19
-106 -62 -98 -95 6 -24 43 -36 70 -22 10 5 39 13 66 16 39 6 47 4 47 -8 0 -9
11 -23 25 -32 21 -14 31 -15 50 -6 26 12 31 38 26 120 -2 23 1 33 11 31 38 -5
59 5 97 43 47 49 52 80 16 104 -24 16 -27 16 -49 -5 -15 -14 -35 -21 -63 -21
-36 0 -42 3 -45 23 -2 17 -10 23 -39 25 -24 2 -42 -3 -53 -13z"/>
<path d="M4428 1923 c-9 -3 -20 -12 -23 -22 -3 -10 -16 -27 -28 -39 -21 -20
-25 -20 -51 -7 -24 13 -127 35 -163 35 -23 0 -43 -32 -43 -67 0 -30 8 -44 49
-84 27 -27 61 -51 75 -55 17 -4 26 -13 26 -26 0 -34 29 -77 57 -84 37 -10 53
4 88 69 32 62 44 67 81 38 19 -15 32 -17 58 -11 46 10 51 14 70 55 16 34 16
36 -4 65 -18 25 -28 30 -63 30 -41 0 -42 1 -57 47 -15 47 -37 63 -72 56z"/>
</g>
</svg>
