<svg xmlns="http://www.w3.org/2000/svg" id="Capa_1">
		<path class="st0" d="M103.6,52c-1.1-3.1-4.6-4.7-7.7-3.6c-1.7,0.6-3,1.9-3.6,3.6H80v-8h8c1.1,0,2-0.9,2-2l0,0v-8.4    c3.1-1.1,4.8-4.5,3.7-7.7s-4.5-4.8-7.7-3.7c-3.1,1.1-4.8,4.5-3.7,7.7c0.6,1.7,1.9,3.1,3.7,3.7V40h-6v-4c0-1.1-0.9-2-2-2h-4V23.6    c3.1-1.1,4.8-4.5,3.7-7.7s-4.5-4.8-7.7-3.7s-4.8,4.5-3.7,7.7c0.6,1.7,1.9,3.1,3.7,3.7V34h-8V2.1c0-1.1-0.9-2-2-2l0,0    c-24.7,0-44,17.9-44,40.6c0,10.8,4.3,25.2,11.2,37.4c1.2,2.2,2.9,4.5,4.6,6.9c3.6,5.2,7.7,11,8.1,16.1c-1.5,1.1-2.4,2.9-2.4,4.8    c0,1.3,0.5,2.7,1.3,3.7c-1.2,1.2-1.8,2.8-1.8,4.4c0,3.3,2.7,6,6,6h34c3.3,0,6-2.7,6-6c0,0,0,0,0-0.1v-0.1c0-1.6-0.7-3.2-1.8-4.3    c0.9-1.1,1.3-2.4,1.3-3.8c0-3.2-2.6-5.7-5.7-5.7c0,0,0,0-0.1,0H62V62h4v6c0,1.1,0.9,2,2,2h6v2.4c-3.1,1.1-4.8,4.5-3.7,7.7    c1.1,3.1,4.5,4.8,7.7,3.7c3.1-1.1,4.8-4.5,3.7-7.7c-0.6-1.7-1.9-3.1-3.7-3.7V68c0-1.1-0.9-2-2-2h-6v-4h8c1.1,0,2-0.9,2-2l0,0v-4    h12.3c1.3,3,4.9,4.4,7.9,3.1C102.9,57.9,104.4,54.9,103.6,52z M88,26c1.1,0,2,0.9,2,2s-0.9,2-2,2s-2-0.9-2-2S86.9,26,88,26z     M35.1,82.8c-1.7-2.4-3.2-4.6-4.4-6.6C24.2,64.7,20,50.7,20,40.7C20,20.8,36.5,5,58,4.1v14c-0.5,0-1.1,0.1-1.7,0.2    c-0.8,0.1-1.5,0.7-1.7,1.6L54,22.7c-0.5,0.1-1,0.3-1.5,0.4l-2-2.2c-0.6-0.6-1.5-0.8-2.3-0.5c-2.2,1-4.4,2.2-6.3,3.7    c-0.7,0.5-1,1.4-0.7,2.2l0.9,2.8c-0.4,0.4-0.8,0.7-1.1,1.1l-2.8-0.9c-0.8-0.3-1.7,0-2.2,0.7c-1.5,1.9-2.7,4.1-3.7,6.3    c-0.3,0.8-0.1,1.7,0.5,2.3l2.2,2c-0.2,0.5-0.3,1-0.4,1.5l-3.1,0.6c-1,0.2-1.6,1-1.6,2v6.8c0,1,0.7,1.8,1.6,2l3.1,0.6    c0.1,0.5,0.3,1,0.4,1.5l-2.2,2c-0.6,0.6-0.8,1.5-0.5,2.3c1,2.2,2.2,4.3,3.7,6.2c0.5,0.7,1.4,1,2.2,0.7l2.8-0.9    c0.3,0.4,0.7,0.7,1.1,1.1l-0.9,2.8c-0.3,0.8,0,1.7,0.7,2.2c1.9,1.5,4.1,2.7,6.3,3.7c0.8,0.3,1.7,0.1,2.3-0.5l2-2.2    c0.5,0.2,1,0.3,1.5,0.4l0.6,2.9c0.2,0.8,0.9,1.5,1.7,1.6c0.6,0.1,1.1,0.1,1.7,0.2V100H43.8C43,94.1,38.8,88.1,35.1,82.8z M42,48    c0,9.1,6.9,16.8,16,17.8v6.9l-0.3-1.6c-0.2-0.8-0.8-1.4-1.7-1.5c-1.2-0.2-2.3-0.5-3.5-0.9c-0.2-0.1-0.4-0.1-0.7-0.1    c-0.6,0-1.1,0.2-1.5,0.7l-1.9,2.1c-1-0.5-2-1.1-3-1.8l0.9-2.7c0.3-0.8,0-1.6-0.6-2.2c-0.9-0.8-1.8-1.6-2.6-2.5    c-0.5-0.6-1.4-0.9-2.2-0.6l-2.6,0.9c-0.7-1-1.2-2-1.8-3l2.1-1.9c0.6-0.5,0.8-1.4,0.5-2.2c-0.4-1.1-0.7-2.3-0.9-3.5    c-0.1-0.8-0.8-1.4-1.6-1.6L34,49.7v-3.5l2.8-0.5c0.8-0.2,1.4-0.8,1.6-1.7c0.2-1.2,0.5-2.3,0.9-3.5c0.3-0.8,0.1-1.6-0.5-2.2    l-2.1-1.9c0.5-1,1.1-2,1.8-3l2.6,0.9c0.8,0.3,1.6,0,2.2-0.6c0.8-0.9,1.6-1.8,2.6-2.6c0.6-0.5,0.9-1.4,0.6-2.1l-0.9-2.6    c1-0.7,2-1.2,3-1.8l1.9,2.1c0.5,0.6,1.4,0.8,2.2,0.5c1.1-0.4,2.3-0.7,3.5-0.9c0.8-0.1,1.4-0.8,1.6-1.6l0.4-1.6v6.9    C48.9,31.1,42,38.8,42,48z M58,34.1v27.7c-7.6-1.2-12.9-8.4-11.7-16C47.3,39.8,52,35.1,58,34.1z M79,114c0,1.1-0.9,2-2,2H43    c-1.1,0-2-0.9-2-2c0,0,0,0,0-0.1v-0.1c0-1.1,0.9-2,2-2h34c1.1,0,2,0.9,2,2C79,113.9,79,113.9,79,114L79,114z M76.5,104    c1-0.1,1.9,0.6,2,1.6c0,0,0,0,0,0c0,0.1,0,0.1,0,0.2c0,1.1-0.9,2-2,2h-33c-1.1,0-2-0.9-2-2c0,0,0,0,0-0.1v-0.1    c0-1,0.9-1.8,1.9-1.7c0,0,0,0,0,0H76.5L76.5,104z M76,76c1.1,0,2,0.9,2,2s-0.9,2-2,2s-2-0.9-2-2S74.9,76,76,76z M72,16    c1.1,0,2,0.9,2,2s-0.9,2-2,2s-2-0.9-2-2S70.9,16,72,16z M76,58H62V38h14V58z M98,56c-1.1,0-2-0.9-2-2s0.9-2,2-2s2,0.9,2,2    C100,55.1,99.1,56,98,56C98,56,98,56,98,56L98,56z"/>
		<path class="st0" d="M79.2,91.4c-0.7,1.3-1.3,2.6-1.9,3.9l3.7,1.5c0.5-1.2,1-2.3,1.7-3.4L79.2,91.4z"/>
		<path class="st0" d="M83.7,84.4c-0.8,1.1-1.6,2.3-2.3,3.4l3.3,2.2c0.7-1.1,1.5-2.2,2.3-3.3L83.7,84.4z"/>
		<path class="st0" d="M88.3,77.8c-0.7,1.1-1.4,2.2-2.2,3.3l3.3,2.3c0.8-1.2,1.6-2.3,2.3-3.5L88.3,77.8z"/>
		<path class="st0" d="M92,70.8c-0.6,1.2-1.2,2.4-1.8,3.6l3.5,1.9c0.7-1.2,1.3-2.5,1.9-3.7L92,70.8z"/>
		<path class="st0" d="M95.2,63.5c-0.5,1.2-1,2.5-1.5,3.7l3.7,1.6c0.6-1.3,1.1-2.6,1.6-3.9L95.2,63.5z"/>
		<path class="st0" d="M103.9,40.3h-4v0.4c0,1.1,0,2.3-0.2,3.5l4,0.3c0.1-1.3,0.2-2.6,0.2-3.9L103.9,40.3z"/>
		<path class="st0" d="M102.9,31.8L99,32.7c0.3,1.2,0.5,2.5,0.7,3.8l4-0.5C103.5,34.6,103.2,33.2,102.9,31.8z"/>
		<path class="st0" d="M100.1,23.7l-3.6,1.8c0.6,1.1,1.1,2.3,1.5,3.5l3.8-1.3C101.2,26.3,100.7,25,100.1,23.7z"/>
		<path class="st0" d="M95.5,16.5L92.3,19c0.8,1,1.6,2.1,2.2,3.1L98,20C97.2,18.8,96.4,17.6,95.5,16.5z"/>
		<path class="st0" d="M89.5,10.4l-2.5,3.1c1,0.8,1.9,1.7,2.8,2.6l2.8-2.8C91.6,12.3,90.6,11.3,89.5,10.4z"/>
		<path class="st0" d="M82.4,5.6l-1.9,3.5c1.1,0.6,2.3,1.3,3.3,2l2.2-3.3C84.9,7.1,83.7,6.3,82.4,5.6z"/>
		<path class="st0" d="M74.6,2.3l-1.2,3.8C74.6,6.5,75.8,7,77,7.5l1.6-3.7C77.3,3.2,75.9,2.7,74.6,2.3z"/>
		<path class="st0" d="M66.3,0.5l-0.5,4c1.3,0.2,2.6,0.4,3.8,0.7l0.9-3.9C69.1,0.9,67.7,0.7,66.3,0.5z"/>
		<rect x="4" y="107.9" class="st0" width="4" height="4"/>
		<rect x="4" y="115.9" class="st0" width="4" height="4"/>
		<rect x="8" y="111.9" class="st0" width="4" height="4"/>
		<rect y="111.9" class="st0" width="4" height="4"/>
		<rect x="113.9" class="st0" width="4" height="4"/>
		<rect x="113.9" y="8" class="st0" width="4" height="4"/>
		<rect x="117.9" y="4" class="st0" width="4" height="4"/>
		<rect x="109.9" y="4" class="st0" width="4" height="4"/>
	</svg>